<svg width="109" height="92" viewBox="0 0 109 92" xmlns="http://www.w3.org/2000/svg" xmlns:xlink="http://www.w3.org/1999/xlink" id="Layer_1" overflow="hidden"><defs><path d="M106.898 45.999C106.898 70.837 82.967 90.969 53.45 90.969 23.928 90.969 0 70.837 0 45.999 0 21.165 23.928 1.031 53.45 1.031 82.967 1.031 106.898 21.165 106.898 45.999Z" id="SVGID_1_"/></defs><clipPath id="SVGID_2_"><use width="100%" height="100%" xlink:href="#SVGID_1_" overflow="visible"></use></clipPath><ellipse cx="53.466" cy="45.978" rx="53.449" ry="44.97" fill="#E61D30" clip-path="url(#SVGID_2_)"/><g clip-path="url(#SVGID_2_)"><path d="M74.337 44.058C73.553 45.454 75.189 48.048 73.63 49.842 72.302 51.37 70.156 50.781 68.702 51.115 69.336 50.111 70.829 47.725 73.004 45.516 73.05 45.468 72.906 45.46 72.954 45.412 72.352 45.923 69.829 47.677 68.073 50.565 68.198 49.075 67.187 46.942 68.512 45.419 70.068 43.627 72.955 44.926 74.225 43.961L74.337 44.058Z" fill="#FFFFFF"/></g><g clip-path="url(#SVGID_2_)"><path d="M25.055 23.407C25.055 22.106 25.192 21.509 26.93 21.509 29.829 21.509 31.297 23.725 31.297 26.643 31.297 30.474 28.876 31.915 25.772 31.915L25.056 31.915 25.056 23.407ZM35.167 44.537 40.537 44.537 40.537 43.692C40.061 43.692 39.719 43.588 39.174 42.955 38.628 42.322 37.912 41.196 36.616 39.122L32.491 32.477C35.185 31.704 37.912 29.629 37.912 26.465 37.912 23.337 35.627 21.366 32.866 20.699 31.262 20.311 27.341 20.278 23.555 20.278L15.814 20.278 15.814 21.121C17.929 21.191 18.714 21.366 18.714 24.215L18.714 40.6C18.714 43.446 17.929 43.621 15.814 43.692L15.814 44.537 27.956 44.537 27.956 43.692C25.839 43.622 25.056 43.446 25.056 40.6L25.056 33.145 26.081 33.145 31.481 42.543C32.352 43.693 32.715 44.537 35.167 44.537Z" fill="#FFFFFF"/><path d="M39.74 67.092C41.788 67.024 42.549 66.846 42.549 63.998L42.549 47.615C42.549 44.769 41.788 44.594 39.74 44.522L39.74 43.678 51.506 43.678 51.506 44.522C49.457 44.594 48.694 44.769 48.694 47.615L48.694 53.851 57.014 53.84 57.014 47.614C57.014 44.768 56.256 44.593 54.206 44.521L54.206 43.677 65.971 43.677 65.971 44.521C63.923 44.593 63.16 44.768 63.16 47.614L63.16 63.997C63.16 66.845 63.923 67.022 65.971 67.091L65.971 67.937 54.206 67.937 54.206 67.091C56.256 67.023 57.014 66.845 57.014 63.997L57.014 54.944 48.694 55.224 48.694 63.996C48.694 66.844 49.456 67.021 51.506 67.09L51.506 67.936 39.74 67.936 39.74 67.092Z" fill="#FFFFFF"/><path d="M44.842 30.244C44.908 28.084 44.977 25.257 47.338 25.257 49.699 25.257 49.763 28.084 49.831 30.244L49.831 34.699C49.763 36.862 49.698 39.686 47.338 39.686 44.978 39.686 44.908 36.862 44.842 34.699L44.842 30.244ZM39.324 32.472C39.324 37.227 42.714 40.652 47.338 40.652 51.958 40.652 55.349 37.227 55.349 32.472 55.349 27.717 51.958 24.293 47.338 24.293 42.714 24.293 39.324 27.717 39.324 32.472Z" fill="#FFFFFF"/><path d="M57.046 34.9 57.711 34.9C58.109 36.962 59.805 39.686 62.167 39.686 63.429 39.686 64.661 39.088 64.661 37.692 64.661 36.528 64.094 35.898 61.203 34.534 58.51 33.27 56.913 31.709 56.913 29.249 56.913 26.22 59.009 24.293 61.971 24.293 63.264 24.293 63.994 24.459 64.53 24.657 65.062 24.857 65.359 25.026 65.69 25.026 66.19 25.026 66.49 24.657 66.49 24.293L67.155 24.293 67.155 29.314 66.49 29.314C66.19 27.383 64.695 25.256 62.599 25.256 61.402 25.256 60.439 25.922 60.439 27.085 60.439 28.214 61.302 28.848 63.33 29.779 65.561 30.809 67.921 31.939 67.921 35.395 67.921 38.655 65.561 40.65 62.369 40.65 60.64 40.65 59.21 39.885 58.609 39.885 58.144 39.885 57.814 40.284 57.713 40.65L57.048 40.65 57.048 34.9Z" fill="#FFFFFF"/><path d="M74.535 30.841C74.636 27.75 74.935 25.257 76.961 25.257 78.692 25.257 78.89 26.788 78.89 29.249L78.89 30.841 74.535 30.841ZM83.613 32.006C83.613 30.478 83.545 29.579 83.049 28.283 82.113 25.788 79.556 24.293 76.961 24.293 72.207 24.293 69.346 27.784 69.346 32.272 69.346 36.896 71.741 40.651 76.794 40.651 80.522 40.651 82.815 38.324 83.713 35.93L82.982 35.496C81.983 36.895 80.919 37.925 78.956 37.925 75.8 37.925 74.569 35.031 74.569 32.005L83.613 32.005Z" fill="#FFFFFF"/><path d="M66.776 67.139C68.372 67.139 68.402 66.309 68.402 65.046L68.402 54.932C68.402 53.732 67.97 53.343 66.776 53.364L66.776 52.567 73.591 52.442 73.591 65.046C73.591 66.309 73.622 67.139 74.887 67.139L74.887 67.938 66.776 67.938 66.776 67.139Z" fill="#FFFFFF"/><path d="M76.018 67.139C77.615 67.139 77.65 66.309 77.65 65.046L77.65 47.39C77.65 46.193 77.215 45.793 76.018 45.793L76.018 44.997 82.835 44.997 82.835 65.046C82.835 66.309 82.867 67.139 84.132 67.139L84.132 67.938 76.018 67.938 76.018 67.139Z" fill="#FFFFFF"/><path d="M85.263 67.139C86.858 67.139 86.889 66.309 86.889 65.046L86.889 47.39C86.889 46.193 86.456 45.793 85.263 45.793L85.263 44.997 92.078 44.997 92.078 65.046C92.078 66.309 92.111 67.139 93.373 67.139L93.373 67.938 85.263 67.938 85.263 67.139Z" fill="#FFFFFF"/><path d="M8.417 70.238C8.417 70.238 6.629 67.994 5.705 66.537 4.82 65.139 4.445 64.256 3.379 62.188 3.379 62.188 4.584 61.635 6.17 61.057 12.395 58.788 30.522 53.744 58.139 53.744L58.139 55.36C58.139 55.36 31.513 53.538 10.49 68.719 10.379 68.798 8.527 70.157 8.417 70.238Z" fill="#FFFFFF"/></g></svg>